<mxfile host="app.diagrams.net" modified="2021-03-04T19:50:02.422Z" agent="5.0 (Windows NT 10.0; Win64; x64) AppleWebKit/537.36 (KHTML, like Gecko) Chrome/88.0.4324.190 Safari/537.36" etag="hUMKwB7YYp6K4r9dC8yI" version="14.4.4" type="github" pages="5">
  <diagram id="_SMC0u45X8TKjPtcEhmq" name="Page-1">
    <mxGraphModel dx="2062" dy="1155" grid="1" gridSize="10" guides="1" tooltips="1" connect="1" arrows="1" fold="1" page="1" pageScale="1" pageWidth="850" pageHeight="1100" math="0" shadow="0">
      <root>
        <mxCell id="0" />
        <mxCell id="1" parent="0" />
        <mxCell id="qD6dwO_QsiaVFb5z87MW-13" style="edgeStyle=orthogonalEdgeStyle;rounded=0;orthogonalLoop=1;jettySize=auto;html=1;exitX=0.5;exitY=1;exitDx=0;exitDy=0;entryX=0.5;entryY=0;entryDx=0;entryDy=0;" parent="1" source="qD6dwO_QsiaVFb5z87MW-3" target="qD6dwO_QsiaVFb5z87MW-5" edge="1">
          <mxGeometry relative="1" as="geometry" />
        </mxCell>
        <mxCell id="qD6dwO_QsiaVFb5z87MW-3" value="UI scans the TRF" style="rounded=0;whiteSpace=wrap;html=1;" parent="1" vertex="1">
          <mxGeometry x="80" y="40" width="120" height="60" as="geometry" />
        </mxCell>
        <mxCell id="qD6dwO_QsiaVFb5z87MW-14" style="edgeStyle=orthogonalEdgeStyle;rounded=0;orthogonalLoop=1;jettySize=auto;html=1;exitX=0.5;exitY=1;exitDx=0;exitDy=0;entryX=0.5;entryY=0;entryDx=0;entryDy=0;" parent="1" source="qD6dwO_QsiaVFb5z87MW-5" target="qD6dwO_QsiaVFb5z87MW-7" edge="1">
          <mxGeometry relative="1" as="geometry" />
        </mxCell>
        <mxCell id="qD6dwO_QsiaVFb5z87MW-5" value="UI sends REQ ID to Antrim" style="rounded=0;whiteSpace=wrap;html=1;" parent="1" vertex="1">
          <mxGeometry x="80" y="140" width="120" height="60" as="geometry" />
        </mxCell>
        <mxCell id="qD6dwO_QsiaVFb5z87MW-15" style="edgeStyle=orthogonalEdgeStyle;rounded=0;orthogonalLoop=1;jettySize=auto;html=1;exitX=0.5;exitY=1;exitDx=0;exitDy=0;entryX=0.5;entryY=0;entryDx=0;entryDy=0;" parent="1" source="qD6dwO_QsiaVFb5z87MW-7" target="qD6dwO_QsiaVFb5z87MW-8" edge="1">
          <mxGeometry relative="1" as="geometry" />
        </mxCell>
        <mxCell id="qD6dwO_QsiaVFb5z87MW-7" value="Antrim return REQ Info to UI" style="rounded=0;whiteSpace=wrap;html=1;" parent="1" vertex="1">
          <mxGeometry x="80" y="230" width="120" height="60" as="geometry" />
        </mxCell>
        <mxCell id="qD6dwO_QsiaVFb5z87MW-16" style="edgeStyle=orthogonalEdgeStyle;rounded=0;orthogonalLoop=1;jettySize=auto;html=1;exitX=0.5;exitY=1;exitDx=0;exitDy=0;entryX=0.5;entryY=0;entryDx=0;entryDy=0;" parent="1" source="qD6dwO_QsiaVFb5z87MW-8" target="qD6dwO_QsiaVFb5z87MW-10" edge="1">
          <mxGeometry relative="1" as="geometry" />
        </mxCell>
        <mxCell id="qD6dwO_QsiaVFb5z87MW-8" value="UI populates info and user finishes order" style="rounded=0;whiteSpace=wrap;html=1;" parent="1" vertex="1">
          <mxGeometry x="80" y="320" width="120" height="60" as="geometry" />
        </mxCell>
        <mxCell id="qD6dwO_QsiaVFb5z87MW-17" style="edgeStyle=orthogonalEdgeStyle;rounded=0;orthogonalLoop=1;jettySize=auto;html=1;exitX=0.5;exitY=1;exitDx=0;exitDy=0;" parent="1" source="qD6dwO_QsiaVFb5z87MW-10" target="qD6dwO_QsiaVFb5z87MW-11" edge="1">
          <mxGeometry relative="1" as="geometry" />
        </mxCell>
        <mxCell id="qD6dwO_QsiaVFb5z87MW-10" value="UI sends completed info to Antrim" style="rounded=0;whiteSpace=wrap;html=1;" parent="1" vertex="1">
          <mxGeometry x="80" y="410" width="120" height="60" as="geometry" />
        </mxCell>
        <mxCell id="qD6dwO_QsiaVFb5z87MW-18" style="edgeStyle=orthogonalEdgeStyle;rounded=0;orthogonalLoop=1;jettySize=auto;html=1;exitX=0.5;exitY=1;exitDx=0;exitDy=0;entryX=0.5;entryY=0;entryDx=0;entryDy=0;entryPerimeter=0;" parent="1" source="qD6dwO_QsiaVFb5z87MW-11" target="qD6dwO_QsiaVFb5z87MW-12" edge="1">
          <mxGeometry relative="1" as="geometry" />
        </mxCell>
        <mxCell id="qD6dwO_QsiaVFb5z87MW-11" value="Antrim finishes accession creation" style="rounded=0;whiteSpace=wrap;html=1;" parent="1" vertex="1">
          <mxGeometry x="80" y="500" width="120" height="60" as="geometry" />
        </mxCell>
        <mxCell id="qD6dwO_QsiaVFb5z87MW-12" value="Whether prints the label thru Antrim or UI?" style="strokeWidth=2;html=1;shape=mxgraph.flowchart.decision;whiteSpace=wrap;" parent="1" vertex="1">
          <mxGeometry x="45" y="600" width="190" height="100" as="geometry" />
        </mxCell>
      </root>
    </mxGraphModel>
  </diagram>
  <diagram id="zczUPZHHWUhWi_UTISPP" name="Page-2">
    <mxGraphModel dx="849" dy="754" grid="1" gridSize="10" guides="1" tooltips="1" connect="1" arrows="1" fold="1" page="1" pageScale="1" pageWidth="850" pageHeight="1100" math="0" shadow="0">
      <root>
        <mxCell id="vqONk3I1vGKNQ0q7mpNp-0" />
        <mxCell id="vqONk3I1vGKNQ0q7mpNp-1" parent="vqONk3I1vGKNQ0q7mpNp-0" />
        <mxCell id="vqONk3I1vGKNQ0q7mpNp-14" style="edgeStyle=orthogonalEdgeStyle;rounded=0;orthogonalLoop=1;jettySize=auto;html=1;" parent="vqONk3I1vGKNQ0q7mpNp-1" source="vqONk3I1vGKNQ0q7mpNp-2" target="vqONk3I1vGKNQ0q7mpNp-6" edge="1">
          <mxGeometry relative="1" as="geometry" />
        </mxCell>
        <mxCell id="vqONk3I1vGKNQ0q7mpNp-20" style="edgeStyle=orthogonalEdgeStyle;rounded=0;orthogonalLoop=1;jettySize=auto;html=1;entryX=0;entryY=0.25;entryDx=0;entryDy=0;" parent="vqONk3I1vGKNQ0q7mpNp-1" source="vqONk3I1vGKNQ0q7mpNp-2" target="12KFAH_IgfHVSkJ2N4YD-3" edge="1">
          <mxGeometry relative="1" as="geometry">
            <mxPoint x="759.2" y="324" as="targetPoint" />
          </mxGeometry>
        </mxCell>
        <mxCell id="vqONk3I1vGKNQ0q7mpNp-23" style="edgeStyle=orthogonalEdgeStyle;rounded=0;orthogonalLoop=1;jettySize=auto;html=1;entryX=1;entryY=0.5;entryDx=0;entryDy=0;" parent="vqONk3I1vGKNQ0q7mpNp-1" source="vqONk3I1vGKNQ0q7mpNp-2" target="vqONk3I1vGKNQ0q7mpNp-22" edge="1">
          <mxGeometry relative="1" as="geometry" />
        </mxCell>
        <mxCell id="vqONk3I1vGKNQ0q7mpNp-25" style="edgeStyle=orthogonalEdgeStyle;rounded=0;orthogonalLoop=1;jettySize=auto;html=1;exitX=0;exitY=0;exitDx=0;exitDy=0;entryX=1;entryY=0.5;entryDx=0;entryDy=0;" parent="vqONk3I1vGKNQ0q7mpNp-1" source="vqONk3I1vGKNQ0q7mpNp-2" target="vqONk3I1vGKNQ0q7mpNp-24" edge="1">
          <mxGeometry relative="1" as="geometry">
            <Array as="points">
              <mxPoint x="418" y="280" />
            </Array>
          </mxGeometry>
        </mxCell>
        <mxCell id="vqONk3I1vGKNQ0q7mpNp-27" style="edgeStyle=orthogonalEdgeStyle;rounded=0;orthogonalLoop=1;jettySize=auto;html=1;exitX=0;exitY=1;exitDx=0;exitDy=0;entryX=1;entryY=0.5;entryDx=0;entryDy=0;" parent="vqONk3I1vGKNQ0q7mpNp-1" source="vqONk3I1vGKNQ0q7mpNp-2" target="vqONk3I1vGKNQ0q7mpNp-26" edge="1">
          <mxGeometry relative="1" as="geometry">
            <Array as="points">
              <mxPoint x="418" y="460" />
            </Array>
          </mxGeometry>
        </mxCell>
        <mxCell id="vqONk3I1vGKNQ0q7mpNp-32" style="edgeStyle=orthogonalEdgeStyle;rounded=0;orthogonalLoop=1;jettySize=auto;html=1;exitX=1;exitY=1;exitDx=0;exitDy=0;entryX=0.5;entryY=0;entryDx=0;entryDy=0;" parent="vqONk3I1vGKNQ0q7mpNp-1" source="vqONk3I1vGKNQ0q7mpNp-2" target="vqONk3I1vGKNQ0q7mpNp-28" edge="1">
          <mxGeometry relative="1" as="geometry">
            <Array as="points">
              <mxPoint x="502" y="450" />
              <mxPoint x="811" y="450" />
            </Array>
          </mxGeometry>
        </mxCell>
        <mxCell id="12KFAH_IgfHVSkJ2N4YD-1" style="edgeStyle=orthogonalEdgeStyle;rounded=0;orthogonalLoop=1;jettySize=auto;html=1;exitX=1;exitY=0;exitDx=0;exitDy=0;entryX=0;entryY=0.5;entryDx=0;entryDy=0;" edge="1" parent="vqONk3I1vGKNQ0q7mpNp-1" source="vqONk3I1vGKNQ0q7mpNp-2" target="12KFAH_IgfHVSkJ2N4YD-0">
          <mxGeometry relative="1" as="geometry" />
        </mxCell>
        <mxCell id="vqONk3I1vGKNQ0q7mpNp-2" value="Oracle OLTP 11g&lt;br&gt;w/ Data Guard&lt;br&gt;Single Node NO HA" style="ellipse;whiteSpace=wrap;html=1;" parent="vqONk3I1vGKNQ0q7mpNp-1" vertex="1">
          <mxGeometry x="400" y="330" width="120" height="80" as="geometry" />
        </mxCell>
        <mxCell id="vqONk3I1vGKNQ0q7mpNp-3" value="AnOL Portal (https://online.antechdiagnostics.com)" style="ellipse;shape=cloud;whiteSpace=wrap;html=1;" parent="vqONk3I1vGKNQ0q7mpNp-1" vertex="1">
          <mxGeometry x="400" y="50" width="120" height="80" as="geometry" />
        </mxCell>
        <mxCell id="vqONk3I1vGKNQ0q7mpNp-8" style="edgeStyle=orthogonalEdgeStyle;rounded=0;orthogonalLoop=1;jettySize=auto;html=1;entryX=0.5;entryY=1;entryDx=0;entryDy=0;entryPerimeter=0;" parent="vqONk3I1vGKNQ0q7mpNp-1" source="vqONk3I1vGKNQ0q7mpNp-6" target="vqONk3I1vGKNQ0q7mpNp-3" edge="1">
          <mxGeometry relative="1" as="geometry" />
        </mxCell>
        <mxCell id="vqONk3I1vGKNQ0q7mpNp-17" style="edgeStyle=orthogonalEdgeStyle;rounded=0;orthogonalLoop=1;jettySize=auto;html=1;entryX=0.07;entryY=0.4;entryDx=0;entryDy=0;entryPerimeter=0;" parent="vqONk3I1vGKNQ0q7mpNp-1" source="vqONk3I1vGKNQ0q7mpNp-6" target="vqONk3I1vGKNQ0q7mpNp-16" edge="1">
          <mxGeometry relative="1" as="geometry" />
        </mxCell>
        <mxCell id="vqONk3I1vGKNQ0q7mpNp-40" style="edgeStyle=orthogonalEdgeStyle;rounded=0;orthogonalLoop=1;jettySize=auto;html=1;exitX=0.88;exitY=0.25;exitDx=0;exitDy=0;exitPerimeter=0;entryX=0.55;entryY=0.95;entryDx=0;entryDy=0;entryPerimeter=0;" parent="vqONk3I1vGKNQ0q7mpNp-1" source="vqONk3I1vGKNQ0q7mpNp-6" target="vqONk3I1vGKNQ0q7mpNp-39" edge="1">
          <mxGeometry relative="1" as="geometry" />
        </mxCell>
        <mxCell id="vqONk3I1vGKNQ0q7mpNp-6" value="AnOL API (https://onlineapi.antechdiagnostics.com)" style="ellipse;shape=cloud;whiteSpace=wrap;html=1;" parent="vqONk3I1vGKNQ0q7mpNp-1" vertex="1">
          <mxGeometry x="400" y="190" width="120" height="80" as="geometry" />
        </mxCell>
        <mxCell id="vqONk3I1vGKNQ0q7mpNp-15" style="edgeStyle=orthogonalEdgeStyle;rounded=0;orthogonalLoop=1;jettySize=auto;html=1;entryX=0.5;entryY=1;entryDx=0;entryDy=0;" parent="vqONk3I1vGKNQ0q7mpNp-1" source="vqONk3I1vGKNQ0q7mpNp-10" target="vqONk3I1vGKNQ0q7mpNp-12" edge="1">
          <mxGeometry relative="1" as="geometry" />
        </mxCell>
        <mxCell id="vqONk3I1vGKNQ0q7mpNp-10" value="Antrim LIMS" style="ellipse;whiteSpace=wrap;html=1;" parent="vqONk3I1vGKNQ0q7mpNp-1" vertex="1">
          <mxGeometry x="400" y="590" width="120" height="80" as="geometry" />
        </mxCell>
        <mxCell id="vqONk3I1vGKNQ0q7mpNp-13" style="edgeStyle=orthogonalEdgeStyle;rounded=0;orthogonalLoop=1;jettySize=auto;html=1;entryX=0.5;entryY=1;entryDx=0;entryDy=0;" parent="vqONk3I1vGKNQ0q7mpNp-1" source="vqONk3I1vGKNQ0q7mpNp-12" target="vqONk3I1vGKNQ0q7mpNp-2" edge="1">
          <mxGeometry relative="1" as="geometry" />
        </mxCell>
        <mxCell id="vqONk3I1vGKNQ0q7mpNp-12" value="HL7 parser" style="shape=parallelogram;perimeter=parallelogramPerimeter;whiteSpace=wrap;html=1;fixedSize=1;" parent="vqONk3I1vGKNQ0q7mpNp-1" vertex="1">
          <mxGeometry x="400" y="470" width="120" height="60" as="geometry" />
        </mxCell>
        <mxCell id="vqONk3I1vGKNQ0q7mpNp-16" value="PIMS v3,&lt;br&gt;On AWS" style="ellipse;shape=cloud;whiteSpace=wrap;html=1;" parent="vqONk3I1vGKNQ0q7mpNp-1" vertex="1">
          <mxGeometry x="751" y="190" width="120" height="98" as="geometry" />
        </mxCell>
        <mxCell id="vqONk3I1vGKNQ0q7mpNp-22" value="Biscom Fax App (Windows/Linux)" style="shape=parallelogram;perimeter=parallelogramPerimeter;whiteSpace=wrap;html=1;fixedSize=1;" parent="vqONk3I1vGKNQ0q7mpNp-1" vertex="1">
          <mxGeometry x="150" y="340" width="120" height="60" as="geometry" />
        </mxCell>
        <mxCell id="vqONk3I1vGKNQ0q7mpNp-24" value="Email App&lt;br&gt;(On-Prem)" style="shape=parallelogram;perimeter=parallelogramPerimeter;whiteSpace=wrap;html=1;fixedSize=1;" parent="vqONk3I1vGKNQ0q7mpNp-1" vertex="1">
          <mxGeometry x="150" y="250" width="120" height="60" as="geometry" />
        </mxCell>
        <mxCell id="vqONk3I1vGKNQ0q7mpNp-26" value="VCA Inventory System,&lt;br&gt;Retiring soon." style="shape=parallelogram;perimeter=parallelogramPerimeter;whiteSpace=wrap;html=1;fixedSize=1;" parent="vqONk3I1vGKNQ0q7mpNp-1" vertex="1">
          <mxGeometry x="150" y="430" width="120" height="60" as="geometry" />
        </mxCell>
        <mxCell id="vqONk3I1vGKNQ0q7mpNp-34" style="edgeStyle=orthogonalEdgeStyle;rounded=0;orthogonalLoop=1;jettySize=auto;html=1;entryX=0.5;entryY=0;entryDx=0;entryDy=0;" parent="vqONk3I1vGKNQ0q7mpNp-1" source="vqONk3I1vGKNQ0q7mpNp-28" target="vqONk3I1vGKNQ0q7mpNp-33" edge="1">
          <mxGeometry relative="1" as="geometry" />
        </mxCell>
        <mxCell id="vqONk3I1vGKNQ0q7mpNp-28" value="ODI Scripts" style="shape=parallelogram;perimeter=parallelogramPerimeter;whiteSpace=wrap;html=1;fixedSize=1;" parent="vqONk3I1vGKNQ0q7mpNp-1" vertex="1">
          <mxGeometry x="751" y="480" width="120" height="60" as="geometry" />
        </mxCell>
        <mxCell id="vqONk3I1vGKNQ0q7mpNp-36" style="edgeStyle=orthogonalEdgeStyle;rounded=0;orthogonalLoop=1;jettySize=auto;html=1;" parent="vqONk3I1vGKNQ0q7mpNp-1" source="vqONk3I1vGKNQ0q7mpNp-33" target="vqONk3I1vGKNQ0q7mpNp-35" edge="1">
          <mxGeometry relative="1" as="geometry" />
        </mxCell>
        <mxCell id="vqONk3I1vGKNQ0q7mpNp-38" style="edgeStyle=orthogonalEdgeStyle;rounded=0;orthogonalLoop=1;jettySize=auto;html=1;entryX=0.094;entryY=0.504;entryDx=0;entryDy=0;entryPerimeter=0;" parent="vqONk3I1vGKNQ0q7mpNp-1" source="vqONk3I1vGKNQ0q7mpNp-33" target="vqONk3I1vGKNQ0q7mpNp-37" edge="1">
          <mxGeometry relative="1" as="geometry" />
        </mxCell>
        <mxCell id="vqONk3I1vGKNQ0q7mpNp-33" value="Financial DB run on Oracle RAC 3 nodes, 18c" style="ellipse;whiteSpace=wrap;html=1;" parent="vqONk3I1vGKNQ0q7mpNp-1" vertex="1">
          <mxGeometry x="751" y="610" width="120" height="80" as="geometry" />
        </mxCell>
        <mxCell id="vqONk3I1vGKNQ0q7mpNp-35" value="Antech CRM,&lt;br&gt;Replaced by SF" style="ellipse;shape=cloud;whiteSpace=wrap;html=1;" parent="vqONk3I1vGKNQ0q7mpNp-1" vertex="1">
          <mxGeometry x="751" y="740" width="120" height="80" as="geometry" />
        </mxCell>
        <mxCell id="vqONk3I1vGKNQ0q7mpNp-37" value="Antech LSA" style="ellipse;shape=cloud;whiteSpace=wrap;html=1;" parent="vqONk3I1vGKNQ0q7mpNp-1" vertex="1">
          <mxGeometry x="920" y="610" width="120" height="80" as="geometry" />
        </mxCell>
        <mxCell id="vqONk3I1vGKNQ0q7mpNp-39" value="Healthtracks (https://www.healthtracks.com)" style="ellipse;shape=cloud;whiteSpace=wrap;html=1;" parent="vqONk3I1vGKNQ0q7mpNp-1" vertex="1">
          <mxGeometry x="650" y="50" width="120" height="80" as="geometry" />
        </mxCell>
        <mxCell id="vqONk3I1vGKNQ0q7mpNp-42" style="edgeStyle=orthogonalEdgeStyle;rounded=0;orthogonalLoop=1;jettySize=auto;html=1;entryX=1;entryY=0.5;entryDx=0;entryDy=0;" parent="vqONk3I1vGKNQ0q7mpNp-1" source="vqONk3I1vGKNQ0q7mpNp-41" target="vqONk3I1vGKNQ0q7mpNp-12" edge="1">
          <mxGeometry relative="1" as="geometry">
            <Array as="points">
              <mxPoint x="630" y="500" />
            </Array>
          </mxGeometry>
        </mxCell>
        <mxCell id="vqONk3I1vGKNQ0q7mpNp-41" value="Antrim FIN" style="ellipse;whiteSpace=wrap;html=1;" parent="vqONk3I1vGKNQ0q7mpNp-1" vertex="1">
          <mxGeometry x="570" y="590" width="120" height="80" as="geometry" />
        </mxCell>
        <mxCell id="12KFAH_IgfHVSkJ2N4YD-0" value="Two Backups" style="ellipse;whiteSpace=wrap;html=1;" vertex="1" parent="vqONk3I1vGKNQ0q7mpNp-1">
          <mxGeometry x="610" y="250" width="120" height="80" as="geometry" />
        </mxCell>
        <mxCell id="12KFAH_IgfHVSkJ2N4YD-3" value="PIMS v1/v2,&lt;br&gt;On-Prem" style="shape=parallelogram;perimeter=parallelogramPerimeter;whiteSpace=wrap;html=1;fixedSize=1;" vertex="1" parent="vqONk3I1vGKNQ0q7mpNp-1">
          <mxGeometry x="751" y="350" width="120" height="62" as="geometry" />
        </mxCell>
      </root>
    </mxGraphModel>
  </diagram>
  <diagram id="88LElsnt4D7HNfVGQ8fJ" name="Page-3">
    <mxGraphModel dx="1536" dy="1013" grid="1" gridSize="10" guides="1" tooltips="1" connect="1" arrows="1" fold="1" page="1" pageScale="1" pageWidth="850" pageHeight="1100" math="0" shadow="0">
      <root>
        <mxCell id="BjDH4_S0xfxuM7AreQSa-0" />
        <mxCell id="BjDH4_S0xfxuM7AreQSa-1" parent="BjDH4_S0xfxuM7AreQSa-0" />
        <mxCell id="BjDH4_S0xfxuM7AreQSa-7" style="edgeStyle=orthogonalEdgeStyle;rounded=0;orthogonalLoop=1;jettySize=auto;html=1;exitX=0;exitY=1;exitDx=0;exitDy=0;" parent="BjDH4_S0xfxuM7AreQSa-1" source="BjDH4_S0xfxuM7AreQSa-2" target="BjDH4_S0xfxuM7AreQSa-3" edge="1">
          <mxGeometry relative="1" as="geometry" />
        </mxCell>
        <mxCell id="BjDH4_S0xfxuM7AreQSa-8" style="edgeStyle=orthogonalEdgeStyle;rounded=0;orthogonalLoop=1;jettySize=auto;html=1;exitX=0.5;exitY=1;exitDx=0;exitDy=0;entryX=0.5;entryY=0;entryDx=0;entryDy=0;" parent="BjDH4_S0xfxuM7AreQSa-1" source="BjDH4_S0xfxuM7AreQSa-2" target="BjDH4_S0xfxuM7AreQSa-4" edge="1">
          <mxGeometry relative="1" as="geometry" />
        </mxCell>
        <mxCell id="BjDH4_S0xfxuM7AreQSa-9" style="edgeStyle=orthogonalEdgeStyle;rounded=0;orthogonalLoop=1;jettySize=auto;html=1;exitX=1;exitY=1;exitDx=0;exitDy=0;entryX=0.5;entryY=0;entryDx=0;entryDy=0;" parent="BjDH4_S0xfxuM7AreQSa-1" source="BjDH4_S0xfxuM7AreQSa-2" target="BjDH4_S0xfxuM7AreQSa-5" edge="1">
          <mxGeometry relative="1" as="geometry" />
        </mxCell>
        <mxCell id="BjDH4_S0xfxuM7AreQSa-10" style="edgeStyle=orthogonalEdgeStyle;rounded=0;orthogonalLoop=1;jettySize=auto;html=1;entryX=0.5;entryY=0;entryDx=0;entryDy=0;" parent="BjDH4_S0xfxuM7AreQSa-1" source="BjDH4_S0xfxuM7AreQSa-2" target="BjDH4_S0xfxuM7AreQSa-6" edge="1">
          <mxGeometry relative="1" as="geometry" />
        </mxCell>
        <mxCell id="BjDH4_S0xfxuM7AreQSa-2" value="Test / Accession" style="ellipse;whiteSpace=wrap;html=1;" parent="BjDH4_S0xfxuM7AreQSa-1" vertex="1">
          <mxGeometry x="360" y="110" width="120" height="80" as="geometry" />
        </mxCell>
        <mxCell id="BjDH4_S0xfxuM7AreQSa-15" style="edgeStyle=orthogonalEdgeStyle;rounded=0;orthogonalLoop=1;jettySize=auto;html=1;exitX=0;exitY=1;exitDx=0;exitDy=0;entryX=0.5;entryY=0;entryDx=0;entryDy=0;" parent="BjDH4_S0xfxuM7AreQSa-1" source="BjDH4_S0xfxuM7AreQSa-3" target="BjDH4_S0xfxuM7AreQSa-11" edge="1">
          <mxGeometry relative="1" as="geometry" />
        </mxCell>
        <mxCell id="BjDH4_S0xfxuM7AreQSa-16" style="edgeStyle=orthogonalEdgeStyle;rounded=0;orthogonalLoop=1;jettySize=auto;html=1;" parent="BjDH4_S0xfxuM7AreQSa-1" source="BjDH4_S0xfxuM7AreQSa-3" target="BjDH4_S0xfxuM7AreQSa-12" edge="1">
          <mxGeometry relative="1" as="geometry" />
        </mxCell>
        <mxCell id="BjDH4_S0xfxuM7AreQSa-17" style="edgeStyle=orthogonalEdgeStyle;rounded=0;orthogonalLoop=1;jettySize=auto;html=1;exitX=1;exitY=1;exitDx=0;exitDy=0;entryX=0.5;entryY=0;entryDx=0;entryDy=0;" parent="BjDH4_S0xfxuM7AreQSa-1" source="BjDH4_S0xfxuM7AreQSa-3" target="BjDH4_S0xfxuM7AreQSa-13" edge="1">
          <mxGeometry relative="1" as="geometry" />
        </mxCell>
        <mxCell id="BjDH4_S0xfxuM7AreQSa-18" style="edgeStyle=orthogonalEdgeStyle;rounded=0;orthogonalLoop=1;jettySize=auto;html=1;" parent="BjDH4_S0xfxuM7AreQSa-1" source="BjDH4_S0xfxuM7AreQSa-3" target="BjDH4_S0xfxuM7AreQSa-14" edge="1">
          <mxGeometry relative="1" as="geometry" />
        </mxCell>
        <mxCell id="BjDH4_S0xfxuM7AreQSa-3" value="Work List 1" style="ellipse;whiteSpace=wrap;html=1;" parent="BjDH4_S0xfxuM7AreQSa-1" vertex="1">
          <mxGeometry x="170" y="270" width="120" height="80" as="geometry" />
        </mxCell>
        <mxCell id="BjDH4_S0xfxuM7AreQSa-4" value="Work List 2" style="ellipse;whiteSpace=wrap;html=1;" parent="BjDH4_S0xfxuM7AreQSa-1" vertex="1">
          <mxGeometry x="360" y="270" width="120" height="80" as="geometry" />
        </mxCell>
        <mxCell id="BjDH4_S0xfxuM7AreQSa-5" value="..." style="ellipse;whiteSpace=wrap;html=1;" parent="BjDH4_S0xfxuM7AreQSa-1" vertex="1">
          <mxGeometry x="550" y="270" width="120" height="80" as="geometry" />
        </mxCell>
        <mxCell id="BjDH4_S0xfxuM7AreQSa-6" value="Work List N" style="ellipse;whiteSpace=wrap;html=1;" parent="BjDH4_S0xfxuM7AreQSa-1" vertex="1">
          <mxGeometry x="740" y="270" width="120" height="80" as="geometry" />
        </mxCell>
        <mxCell id="BjDH4_S0xfxuM7AreQSa-21" style="edgeStyle=orthogonalEdgeStyle;rounded=0;orthogonalLoop=1;jettySize=auto;html=1;" parent="BjDH4_S0xfxuM7AreQSa-1" source="BjDH4_S0xfxuM7AreQSa-11" target="BjDH4_S0xfxuM7AreQSa-20" edge="1">
          <mxGeometry relative="1" as="geometry" />
        </mxCell>
        <mxCell id="BjDH4_S0xfxuM7AreQSa-11" value="Test Code 1" style="rounded=0;whiteSpace=wrap;html=1;" parent="BjDH4_S0xfxuM7AreQSa-1" vertex="1">
          <mxGeometry x="30" y="490" width="120" height="60" as="geometry" />
        </mxCell>
        <mxCell id="BjDH4_S0xfxuM7AreQSa-12" value="Test Code 2" style="rounded=0;whiteSpace=wrap;html=1;" parent="BjDH4_S0xfxuM7AreQSa-1" vertex="1">
          <mxGeometry x="170" y="490" width="120" height="60" as="geometry" />
        </mxCell>
        <mxCell id="BjDH4_S0xfxuM7AreQSa-13" value="..." style="rounded=0;whiteSpace=wrap;html=1;" parent="BjDH4_S0xfxuM7AreQSa-1" vertex="1">
          <mxGeometry x="310" y="490" width="120" height="60" as="geometry" />
        </mxCell>
        <mxCell id="BjDH4_S0xfxuM7AreQSa-14" value="Test Code N" style="rounded=0;whiteSpace=wrap;html=1;" parent="BjDH4_S0xfxuM7AreQSa-1" vertex="1">
          <mxGeometry x="450" y="490" width="120" height="60" as="geometry" />
        </mxCell>
        <mxCell id="BjDH4_S0xfxuM7AreQSa-20" value="Value, Range, Comments, and etc." style="ellipse;shape=cloud;whiteSpace=wrap;html=1;" parent="BjDH4_S0xfxuM7AreQSa-1" vertex="1">
          <mxGeometry x="30" y="590" width="120" height="80" as="geometry" />
        </mxCell>
      </root>
    </mxGraphModel>
  </diagram>
  <diagram id="_xVeqSu_fBOiqC5OX2dk" name="Page-4">
    <mxGraphModel dx="2384" dy="954" grid="1" gridSize="10" guides="1" tooltips="1" connect="1" arrows="1" fold="1" page="1" pageScale="1" pageWidth="850" pageHeight="1100" math="0" shadow="0">
      <root>
        <mxCell id="RZLSpXiPWIPp711lph81-0" />
        <mxCell id="RZLSpXiPWIPp711lph81-1" parent="RZLSpXiPWIPp711lph81-0" />
        <mxCell id="RZLSpXiPWIPp711lph81-2" value="" style="ellipse;shape=cloud;whiteSpace=wrap;html=1;" vertex="1" parent="RZLSpXiPWIPp711lph81-1">
          <mxGeometry x="76" y="880" width="679" height="480" as="geometry" />
        </mxCell>
        <mxCell id="RZLSpXiPWIPp711lph81-56" style="edgeStyle=orthogonalEdgeStyle;rounded=0;orthogonalLoop=1;jettySize=auto;html=1;entryX=0;entryY=0.5;entryDx=0;entryDy=0;" edge="1" parent="RZLSpXiPWIPp711lph81-1" source="RZLSpXiPWIPp711lph81-3" target="RZLSpXiPWIPp711lph81-49">
          <mxGeometry relative="1" as="geometry" />
        </mxCell>
        <mxCell id="RZLSpXiPWIPp711lph81-57" value="HL7" style="edgeLabel;html=1;align=center;verticalAlign=middle;resizable=0;points=[];" vertex="1" connectable="0" parent="RZLSpXiPWIPp711lph81-56">
          <mxGeometry x="-0.1549" y="1" relative="1" as="geometry">
            <mxPoint as="offset" />
          </mxGeometry>
        </mxCell>
        <mxCell id="RZLSpXiPWIPp711lph81-3" value="Antrim" style="shape=datastore;whiteSpace=wrap;html=1;" vertex="1" parent="RZLSpXiPWIPp711lph81-1">
          <mxGeometry x="235" y="1100" width="60" height="60" as="geometry" />
        </mxCell>
        <mxCell id="RZLSpXiPWIPp711lph81-6" value="" style="ellipse;shape=cloud;whiteSpace=wrap;html=1;" vertex="1" parent="RZLSpXiPWIPp711lph81-1">
          <mxGeometry y="120" width="286" height="230" as="geometry" />
        </mxCell>
        <mxCell id="RZLSpXiPWIPp711lph81-7" value="" style="ellipse;shape=cloud;whiteSpace=wrap;html=1;" vertex="1" parent="RZLSpXiPWIPp711lph81-1">
          <mxGeometry x="270" width="570" height="460" as="geometry" />
        </mxCell>
        <mxCell id="RZLSpXiPWIPp711lph81-35" style="edgeStyle=orthogonalEdgeStyle;rounded=0;orthogonalLoop=1;jettySize=auto;html=1;" edge="1" parent="RZLSpXiPWIPp711lph81-1" source="RZLSpXiPWIPp711lph81-8" target="RZLSpXiPWIPp711lph81-11">
          <mxGeometry relative="1" as="geometry" />
        </mxCell>
        <mxCell id="RZLSpXiPWIPp711lph81-58" value="HL7" style="edgeLabel;html=1;align=center;verticalAlign=middle;resizable=0;points=[];" vertex="1" connectable="0" parent="RZLSpXiPWIPp711lph81-35">
          <mxGeometry x="0.1388" y="1" relative="1" as="geometry">
            <mxPoint as="offset" />
          </mxGeometry>
        </mxCell>
        <mxCell id="RZLSpXiPWIPp711lph81-8" value="Antrim" style="shape=datastore;whiteSpace=wrap;html=1;" vertex="1" parent="RZLSpXiPWIPp711lph81-1">
          <mxGeometry x="115" y="210" width="56" height="60" as="geometry" />
        </mxCell>
        <mxCell id="RZLSpXiPWIPp711lph81-40" style="edgeStyle=orthogonalEdgeStyle;rounded=0;orthogonalLoop=1;jettySize=auto;html=1;entryX=0;entryY=0.5;entryDx=0;entryDy=0;" edge="1" parent="RZLSpXiPWIPp711lph81-1" source="RZLSpXiPWIPp711lph81-9" target="RZLSpXiPWIPp711lph81-24">
          <mxGeometry relative="1" as="geometry" />
        </mxCell>
        <mxCell id="RZLSpXiPWIPp711lph81-41" style="edgeStyle=orthogonalEdgeStyle;rounded=0;orthogonalLoop=1;jettySize=auto;html=1;entryX=0;entryY=0.5;entryDx=0;entryDy=0;" edge="1" parent="RZLSpXiPWIPp711lph81-1" source="RZLSpXiPWIPp711lph81-9" target="RZLSpXiPWIPp711lph81-25">
          <mxGeometry relative="1" as="geometry" />
        </mxCell>
        <mxCell id="RZLSpXiPWIPp711lph81-42" style="edgeStyle=orthogonalEdgeStyle;rounded=0;orthogonalLoop=1;jettySize=auto;html=1;entryX=0;entryY=0.5;entryDx=0;entryDy=0;" edge="1" parent="RZLSpXiPWIPp711lph81-1" source="RZLSpXiPWIPp711lph81-9" target="RZLSpXiPWIPp711lph81-10">
          <mxGeometry relative="1" as="geometry" />
        </mxCell>
        <mxCell id="RZLSpXiPWIPp711lph81-44" style="edgeStyle=orthogonalEdgeStyle;rounded=0;orthogonalLoop=1;jettySize=auto;html=1;entryX=0.509;entryY=0.326;entryDx=0;entryDy=0;entryPerimeter=0;" edge="1" parent="RZLSpXiPWIPp711lph81-1" source="RZLSpXiPWIPp711lph81-9" target="RZLSpXiPWIPp711lph81-7">
          <mxGeometry relative="1" as="geometry" />
        </mxCell>
        <mxCell id="RZLSpXiPWIPp711lph81-9" value="OLTP" style="shape=datastore;whiteSpace=wrap;html=1;" vertex="1" parent="RZLSpXiPWIPp711lph81-1">
          <mxGeometry x="532" y="210" width="56" height="60" as="geometry" />
        </mxCell>
        <mxCell id="RZLSpXiPWIPp711lph81-10" value="FAX" style="shape=datastore;whiteSpace=wrap;html=1;" vertex="1" parent="RZLSpXiPWIPp711lph81-1">
          <mxGeometry x="670" y="290" width="56" height="60" as="geometry" />
        </mxCell>
        <mxCell id="RZLSpXiPWIPp711lph81-39" style="edgeStyle=orthogonalEdgeStyle;rounded=0;orthogonalLoop=1;jettySize=auto;html=1;" edge="1" parent="RZLSpXiPWIPp711lph81-1" source="RZLSpXiPWIPp711lph81-11" target="RZLSpXiPWIPp711lph81-9">
          <mxGeometry relative="1" as="geometry" />
        </mxCell>
        <mxCell id="RZLSpXiPWIPp711lph81-11" value="Gateway" style="shape=datastore;whiteSpace=wrap;html=1;" vertex="1" parent="RZLSpXiPWIPp711lph81-1">
          <mxGeometry x="380" y="210" width="56" height="60" as="geometry" />
        </mxCell>
        <mxCell id="RZLSpXiPWIPp711lph81-18" value="Now" style="text;html=1;strokeColor=none;fillColor=none;align=center;verticalAlign=middle;whiteSpace=wrap;rounded=0;" vertex="1" parent="RZLSpXiPWIPp711lph81-1">
          <mxGeometry x="255" y="120" width="36" height="20" as="geometry" />
        </mxCell>
        <mxCell id="RZLSpXiPWIPp711lph81-19" value="Future" style="text;html=1;strokeColor=none;fillColor=none;align=center;verticalAlign=middle;whiteSpace=wrap;rounded=0;" vertex="1" parent="RZLSpXiPWIPp711lph81-1">
          <mxGeometry x="196" y="980" width="40" height="20" as="geometry" />
        </mxCell>
        <mxCell id="RZLSpXiPWIPp711lph81-21" value="FNV" style="text;html=1;strokeColor=none;fillColor=none;align=center;verticalAlign=middle;whiteSpace=wrap;rounded=0;" vertex="1" parent="RZLSpXiPWIPp711lph81-1">
          <mxGeometry x="40" y="200" width="36" height="20" as="geometry" />
        </mxCell>
        <mxCell id="RZLSpXiPWIPp711lph81-22" value="MESA" style="text;html=1;strokeColor=none;fillColor=none;align=center;verticalAlign=middle;whiteSpace=wrap;rounded=0;" vertex="1" parent="RZLSpXiPWIPp711lph81-1">
          <mxGeometry x="370" y="150" width="36" height="20" as="geometry" />
        </mxCell>
        <mxCell id="RZLSpXiPWIPp711lph81-23" value="FNV" style="text;html=1;strokeColor=none;fillColor=none;align=center;verticalAlign=middle;whiteSpace=wrap;rounded=0;" vertex="1" parent="RZLSpXiPWIPp711lph81-1">
          <mxGeometry x="306" y="950" width="40" height="20" as="geometry" />
        </mxCell>
        <mxCell id="RZLSpXiPWIPp711lph81-24" value="PIMS v1" style="shape=datastore;whiteSpace=wrap;html=1;" vertex="1" parent="RZLSpXiPWIPp711lph81-1">
          <mxGeometry x="670" y="130" width="56" height="60" as="geometry" />
        </mxCell>
        <mxCell id="RZLSpXiPWIPp711lph81-25" value="PIMS v2" style="shape=datastore;whiteSpace=wrap;html=1;" vertex="1" parent="RZLSpXiPWIPp711lph81-1">
          <mxGeometry x="670" y="210" width="56" height="60" as="geometry" />
        </mxCell>
        <mxCell id="RZLSpXiPWIPp711lph81-43" value="ZOASIS/ Backoffice" style="shape=datastore;whiteSpace=wrap;html=1;" vertex="1" parent="RZLSpXiPWIPp711lph81-1">
          <mxGeometry x="532" y="90" width="56" height="60" as="geometry" />
        </mxCell>
        <mxCell id="RZLSpXiPWIPp711lph81-45" style="edgeStyle=orthogonalEdgeStyle;rounded=0;orthogonalLoop=1;jettySize=auto;html=1;entryX=0;entryY=0.5;entryDx=0;entryDy=0;" edge="1" parent="RZLSpXiPWIPp711lph81-1" source="RZLSpXiPWIPp711lph81-49" target="RZLSpXiPWIPp711lph81-51">
          <mxGeometry relative="1" as="geometry" />
        </mxCell>
        <mxCell id="RZLSpXiPWIPp711lph81-46" style="edgeStyle=orthogonalEdgeStyle;rounded=0;orthogonalLoop=1;jettySize=auto;html=1;entryX=0;entryY=0.5;entryDx=0;entryDy=0;" edge="1" parent="RZLSpXiPWIPp711lph81-1" source="RZLSpXiPWIPp711lph81-49" target="RZLSpXiPWIPp711lph81-52">
          <mxGeometry relative="1" as="geometry" />
        </mxCell>
        <mxCell id="RZLSpXiPWIPp711lph81-47" style="edgeStyle=orthogonalEdgeStyle;rounded=0;orthogonalLoop=1;jettySize=auto;html=1;entryX=0;entryY=0.5;entryDx=0;entryDy=0;" edge="1" parent="RZLSpXiPWIPp711lph81-1" source="RZLSpXiPWIPp711lph81-49" target="RZLSpXiPWIPp711lph81-50">
          <mxGeometry relative="1" as="geometry" />
        </mxCell>
        <mxCell id="RZLSpXiPWIPp711lph81-48" style="edgeStyle=orthogonalEdgeStyle;rounded=0;orthogonalLoop=1;jettySize=auto;html=1;entryX=0.509;entryY=0.326;entryDx=0;entryDy=0;entryPerimeter=0;" edge="1" parent="RZLSpXiPWIPp711lph81-1" source="RZLSpXiPWIPp711lph81-49">
          <mxGeometry relative="1" as="geometry">
            <mxPoint x="465.1300000000001" y="1039.96" as="targetPoint" />
          </mxGeometry>
        </mxCell>
        <mxCell id="RZLSpXiPWIPp711lph81-49" value="OLTP" style="shape=datastore;whiteSpace=wrap;html=1;" vertex="1" parent="RZLSpXiPWIPp711lph81-1">
          <mxGeometry x="437" y="1100" width="56" height="60" as="geometry" />
        </mxCell>
        <mxCell id="RZLSpXiPWIPp711lph81-50" value="FAX" style="shape=datastore;whiteSpace=wrap;html=1;" vertex="1" parent="RZLSpXiPWIPp711lph81-1">
          <mxGeometry x="575" y="1180" width="56" height="60" as="geometry" />
        </mxCell>
        <mxCell id="RZLSpXiPWIPp711lph81-51" value="PIMS v1" style="shape=datastore;whiteSpace=wrap;html=1;" vertex="1" parent="RZLSpXiPWIPp711lph81-1">
          <mxGeometry x="575" y="1020" width="56" height="60" as="geometry" />
        </mxCell>
        <mxCell id="RZLSpXiPWIPp711lph81-52" value="PIMS v2" style="shape=datastore;whiteSpace=wrap;html=1;" vertex="1" parent="RZLSpXiPWIPp711lph81-1">
          <mxGeometry x="575" y="1100" width="56" height="60" as="geometry" />
        </mxCell>
        <mxCell id="RZLSpXiPWIPp711lph81-53" value="ZOASIS/ Backoffice" style="shape=datastore;whiteSpace=wrap;html=1;" vertex="1" parent="RZLSpXiPWIPp711lph81-1">
          <mxGeometry x="437" y="980" width="56" height="60" as="geometry" />
        </mxCell>
        <mxCell id="RZLSpXiPWIPp711lph81-60" value="" style="ellipse;shape=cloud;whiteSpace=wrap;html=1;" vertex="1" parent="RZLSpXiPWIPp711lph81-1">
          <mxGeometry x="-10" y="520" width="286" height="230" as="geometry" />
        </mxCell>
        <mxCell id="RZLSpXiPWIPp711lph81-61" value="" style="ellipse;shape=cloud;whiteSpace=wrap;html=1;" vertex="1" parent="RZLSpXiPWIPp711lph81-1">
          <mxGeometry x="360" y="425" width="360" height="515" as="geometry" />
        </mxCell>
        <mxCell id="RZLSpXiPWIPp711lph81-79" style="edgeStyle=orthogonalEdgeStyle;rounded=0;orthogonalLoop=1;jettySize=auto;html=1;entryX=0;entryY=0.5;entryDx=0;entryDy=0;" edge="1" parent="RZLSpXiPWIPp711lph81-1" source="RZLSpXiPWIPp711lph81-64" target="RZLSpXiPWIPp711lph81-69">
          <mxGeometry relative="1" as="geometry" />
        </mxCell>
        <mxCell id="RZLSpXiPWIPp711lph81-64" value="Antrim" style="shape=datastore;whiteSpace=wrap;html=1;" vertex="1" parent="RZLSpXiPWIPp711lph81-1">
          <mxGeometry x="59" y="610" width="56" height="60" as="geometry" />
        </mxCell>
        <mxCell id="RZLSpXiPWIPp711lph81-65" style="edgeStyle=orthogonalEdgeStyle;rounded=0;orthogonalLoop=1;jettySize=auto;html=1;entryX=0;entryY=0.5;entryDx=0;entryDy=0;" edge="1" parent="RZLSpXiPWIPp711lph81-1" source="RZLSpXiPWIPp711lph81-69" target="RZLSpXiPWIPp711lph81-76">
          <mxGeometry relative="1" as="geometry" />
        </mxCell>
        <mxCell id="RZLSpXiPWIPp711lph81-66" style="edgeStyle=orthogonalEdgeStyle;rounded=0;orthogonalLoop=1;jettySize=auto;html=1;entryX=0;entryY=0.5;entryDx=0;entryDy=0;" edge="1" parent="RZLSpXiPWIPp711lph81-1" source="RZLSpXiPWIPp711lph81-69" target="RZLSpXiPWIPp711lph81-77">
          <mxGeometry relative="1" as="geometry" />
        </mxCell>
        <mxCell id="RZLSpXiPWIPp711lph81-67" style="edgeStyle=orthogonalEdgeStyle;rounded=0;orthogonalLoop=1;jettySize=auto;html=1;entryX=0;entryY=0.5;entryDx=0;entryDy=0;" edge="1" parent="RZLSpXiPWIPp711lph81-1" source="RZLSpXiPWIPp711lph81-69" target="RZLSpXiPWIPp711lph81-70">
          <mxGeometry relative="1" as="geometry" />
        </mxCell>
        <mxCell id="RZLSpXiPWIPp711lph81-81" style="edgeStyle=orthogonalEdgeStyle;rounded=0;orthogonalLoop=1;jettySize=auto;html=1;entryX=0;entryY=0.5;entryDx=0;entryDy=0;" edge="1" parent="RZLSpXiPWIPp711lph81-1" source="RZLSpXiPWIPp711lph81-69" target="RZLSpXiPWIPp711lph81-78">
          <mxGeometry relative="1" as="geometry" />
        </mxCell>
        <mxCell id="RZLSpXiPWIPp711lph81-69" value="OLTP" style="shape=datastore;whiteSpace=wrap;html=1;" vertex="1" parent="RZLSpXiPWIPp711lph81-1">
          <mxGeometry x="160" y="610" width="56" height="60" as="geometry" />
        </mxCell>
        <mxCell id="RZLSpXiPWIPp711lph81-70" value="FAX" style="shape=datastore;whiteSpace=wrap;html=1;" vertex="1" parent="RZLSpXiPWIPp711lph81-1">
          <mxGeometry x="500" y="690" width="56" height="60" as="geometry" />
        </mxCell>
        <mxCell id="RZLSpXiPWIPp711lph81-73" value="Near Future" style="text;html=1;strokeColor=none;fillColor=none;align=center;verticalAlign=middle;whiteSpace=wrap;rounded=0;" vertex="1" parent="RZLSpXiPWIPp711lph81-1">
          <mxGeometry x="245" y="520" width="36" height="20" as="geometry" />
        </mxCell>
        <mxCell id="RZLSpXiPWIPp711lph81-74" value="FNV" style="text;html=1;strokeColor=none;fillColor=none;align=center;verticalAlign=middle;whiteSpace=wrap;rounded=0;" vertex="1" parent="RZLSpXiPWIPp711lph81-1">
          <mxGeometry x="30" y="600" width="36" height="20" as="geometry" />
        </mxCell>
        <mxCell id="RZLSpXiPWIPp711lph81-75" value="MESA" style="text;html=1;strokeColor=none;fillColor=none;align=center;verticalAlign=middle;whiteSpace=wrap;rounded=0;" vertex="1" parent="RZLSpXiPWIPp711lph81-1">
          <mxGeometry x="510" y="500" width="36" height="20" as="geometry" />
        </mxCell>
        <mxCell id="RZLSpXiPWIPp711lph81-76" value="PIMS v1" style="shape=datastore;whiteSpace=wrap;html=1;" vertex="1" parent="RZLSpXiPWIPp711lph81-1">
          <mxGeometry x="500" y="530" width="56" height="60" as="geometry" />
        </mxCell>
        <mxCell id="RZLSpXiPWIPp711lph81-77" value="PIMS v2" style="shape=datastore;whiteSpace=wrap;html=1;" vertex="1" parent="RZLSpXiPWIPp711lph81-1">
          <mxGeometry x="500" y="610" width="56" height="60" as="geometry" />
        </mxCell>
        <mxCell id="RZLSpXiPWIPp711lph81-78" value="ZOASIS/ Backoffice" style="shape=datastore;whiteSpace=wrap;html=1;" vertex="1" parent="RZLSpXiPWIPp711lph81-1">
          <mxGeometry x="500" y="790" width="56" height="60" as="geometry" />
        </mxCell>
      </root>
    </mxGraphModel>
  </diagram>
  <diagram id="h9O-J653ZMzG3FNIBzPf" name="Page-5">
    <mxGraphModel dx="813" dy="546" grid="1" gridSize="10" guides="1" tooltips="1" connect="1" arrows="1" fold="1" page="1" pageScale="1" pageWidth="850" pageHeight="1100" math="0" shadow="0">
      <root>
        <mxCell id="0IMvv7KHm-RC8ZVUA5zg-0" />
        <mxCell id="0IMvv7KHm-RC8ZVUA5zg-1" parent="0IMvv7KHm-RC8ZVUA5zg-0" />
        <mxCell id="0IMvv7KHm-RC8ZVUA5zg-8" value="" style="ellipse;shape=cloud;whiteSpace=wrap;html=1;" vertex="1" parent="0IMvv7KHm-RC8ZVUA5zg-1">
          <mxGeometry x="270" y="567.5" width="380" height="330" as="geometry" />
        </mxCell>
        <mxCell id="0IMvv7KHm-RC8ZVUA5zg-10" style="edgeStyle=orthogonalEdgeStyle;rounded=0;orthogonalLoop=1;jettySize=auto;html=1;entryX=0.472;entryY=0.108;entryDx=0;entryDy=0;entryPerimeter=0;" edge="1" parent="0IMvv7KHm-RC8ZVUA5zg-1" source="0IMvv7KHm-RC8ZVUA5zg-2" target="0IMvv7KHm-RC8ZVUA5zg-4">
          <mxGeometry relative="1" as="geometry" />
        </mxCell>
        <mxCell id="0IMvv7KHm-RC8ZVUA5zg-2" value="SalesForce" style="shape=process;whiteSpace=wrap;html=1;backgroundOutline=1;" vertex="1" parent="0IMvv7KHm-RC8ZVUA5zg-1">
          <mxGeometry x="397" y="280" width="120" height="60" as="geometry" />
        </mxCell>
        <mxCell id="0IMvv7KHm-RC8ZVUA5zg-13" style="edgeStyle=orthogonalEdgeStyle;rounded=0;orthogonalLoop=1;jettySize=auto;html=1;entryX=0;entryY=0.5;entryDx=0;entryDy=0;" edge="1" parent="0IMvv7KHm-RC8ZVUA5zg-1" source="0IMvv7KHm-RC8ZVUA5zg-3" target="0IMvv7KHm-RC8ZVUA5zg-2">
          <mxGeometry relative="1" as="geometry">
            <Array as="points">
              <mxPoint x="230" y="733" />
              <mxPoint x="230" y="310" />
            </Array>
          </mxGeometry>
        </mxCell>
        <mxCell id="0IMvv7KHm-RC8ZVUA5zg-3" value="Antrim" style="shape=process;whiteSpace=wrap;html=1;backgroundOutline=1;" vertex="1" parent="0IMvv7KHm-RC8ZVUA5zg-1">
          <mxGeometry x="400" y="707" width="120" height="51" as="geometry" />
        </mxCell>
        <mxCell id="0IMvv7KHm-RC8ZVUA5zg-9" style="edgeStyle=orthogonalEdgeStyle;rounded=0;orthogonalLoop=1;jettySize=auto;html=1;entryX=0.5;entryY=0;entryDx=0;entryDy=0;" edge="1" parent="0IMvv7KHm-RC8ZVUA5zg-1" source="0IMvv7KHm-RC8ZVUA5zg-4" target="0IMvv7KHm-RC8ZVUA5zg-3">
          <mxGeometry relative="1" as="geometry" />
        </mxCell>
        <mxCell id="0IMvv7KHm-RC8ZVUA5zg-4" value="AnOL API" style="ellipse;shape=cloud;whiteSpace=wrap;html=1;" vertex="1" parent="0IMvv7KHm-RC8ZVUA5zg-1">
          <mxGeometry x="400" y="450" width="120" height="77" as="geometry" />
        </mxCell>
        <mxCell id="0IMvv7KHm-RC8ZVUA5zg-11" value="Post" style="text;html=1;strokeColor=none;fillColor=none;align=center;verticalAlign=middle;whiteSpace=wrap;rounded=0;" vertex="1" parent="0IMvv7KHm-RC8ZVUA5zg-1">
          <mxGeometry x="470" y="390" width="40" height="20" as="geometry" />
        </mxCell>
        <mxCell id="0IMvv7KHm-RC8ZVUA5zg-12" value="Post" style="text;html=1;strokeColor=none;fillColor=none;align=center;verticalAlign=middle;whiteSpace=wrap;rounded=0;" vertex="1" parent="0IMvv7KHm-RC8ZVUA5zg-1">
          <mxGeometry x="480" y="567.5" width="20" height="20" as="geometry" />
        </mxCell>
      </root>
    </mxGraphModel>
  </diagram>
</mxfile>
